#!OML:ASF E:\acrobat2\Project_11_07_03\Capture day 1\Session 1\Acrobat.ASF
:FULLY-SPECIFIED
:DEGREES
368
root 11.1773 11.6025 7.71842 -56.9992 -2.82058 -174.22
lowerback 60.027 2.46866 -4.62793
upperback 15.8402 0.302585 -2.53428
thorax -3.49612 -1.21073 -0.813652
lowerneck -2.96621 -1.2344 -2.21753
upperneck 28.7281 -0.234647 -4.81283
head 9.53337 -0.179494 -1.20381
rclavicle 9.54166e-015 -2.22639e-014
rhumerus 57.6888 -11.4919 -79.6598
rradius 112.744
rwrist 24.2749
rhand -44.1087 -89.1268
rfingers 7.12502
rthumb -16.9259 118.409
lclavicle 9.54166e-015 -2.22639e-014
lhumerus 62.5091 16.2787 72.5662
lradius 107.751
lwrist -15.9121
lhand -58.7827 -63.3891
lfingers 7.12502
lthumb -30.9923 -35.9861
rfemur -65.0797 6.85374 20.0985
rtibia 39.5399
rfoot -11.2381 -4.90855
rtoes -8.80495
lfemur -64.4913 1.04402 -17.7298
ltibia 42.1695
lfoot -9.84352 -6.05099
ltoes 33.4676
369
root 11.163 11.4798 7.43502 -53.5089 -2.6803 -173.44
lowerback 56.5145 2.7242 -5.46743
upperback 16.5925 0.403627 -2.7237
thorax -2.49318 -1.21659 -0.633358
lowerneck -3.14517 -1.55402 -2.56345
upperneck 28.8148 -0.518864 -5.13981
head 9.59894 -0.37071 -1.28392
rclavicle -7.7526e-015 -4.37326e-015
rhumerus 57.3966 -11.3641 -79.5629
rradius 112.853
rwrist 24.4248
rhand -43.8924 -89.7199
rfingers 7.12502
rthumb -16.7176 119.02
lclavicle -7.7526e-015 -4.37326e-015
lhumerus 62.2823 16.5404 72.6319
lradius 107.982
lwrist -16.1787
lhand -59.0154 -64.8892
lfingers 7.12502
lthumb -31.214 -37.5287
rfemur -68.5763 6.57065 19.7558
rtibia 42.3163
rfoot -10.6177 -4.4183
rtoes -8.66859
lfemur -67.629 1.2418 -18.4539
ltibia 44.7043
lfoot -10.6382 -5.83017
ltoes 30.9368
370
root 11.1505 11.3486 7.14598 -50.1662 -3.03745 -172.757
lowerback 53.4543 2.69839 -5.60688
upperback 17.1628 0.496758 -3.29486
thorax -1.64459 -1.16462 -1.16326
lowerneck -3.08689 -1.6466 -2.33535
upperneck 28.8103 -0.628901 -5.16547
head 9.58056 -0.385157 -1.33891
rclavicle 1.51076e-014 1.98785e-014
rhumerus 56.9782 -11.4517 -79.8948
rradius 113.015
rwrist 24.7086
rhand -43.5525 -269.706
rfingers 7.12502
rthumb -16.3904 119.621
lclavicle 1.51076e-014 1.98785e-014
lhumerus 62.1096 16.4231 72.2125
lradius 108.115
lwrist -16.2171
lhand -58.85 -66.9151
lfingers 7.12502
lthumb -31.0564 -39.5244
rfemur -71.6889 6.62078 19.9365
rtibia 44.7966
rfoot -9.78921 -4.06215
rtoes -9.57509
lfemur -70.5141 1.71223 -18.6796
ltibia 47.0587
lfoot -11.0957 -5.83353
ltoes 32.4626
371
root 11.1448 11.1741 6.80745 -48.7034 -3.61269 -172.385
lowerback 53.4818 3.26023 -6.05651
upperback 17.2853 0.802847 -3.06788
thorax -1.48967 -1.16159 -0.836618
lowerneck -3.3369 -1.74512 -2.40423
upperneck 29.0476 -0.583807 -5.59852
head 9.71651 -0.397774 -1.47733
rclavicle 6.55989e-015 4.77083e-015
rhumerus 56.8193 -11.406 -79.6722
rradius 113.345
rwrist 24.5868
rhand -43.3382 -269.268
rfingers 7.12502
rthumb -16.1841 120.076
lclavicle 6.55989e-015 4.77083e-015
lhumerus 61.8021 16.6963 72.4127
lradius 108.346
lwrist -16.1843
lhand -58.6769 -69.5214
lfingers 7.12502
lthumb -30.8914 -42.0993
rfemur -71.9283 7.00679 20.4301
rtibia 46.196
rfoot -9.2755 -3.92029
rtoes -10.9745
lfemur -70.6358 2.32499 -18.6818
ltibia 48.4386
lfoot -11.2308 -5.71647
ltoes 33.6118
372
root 11.1435 10.9733 6.43992 -48.3169 -3.96735 -172.011
lowerback 55.5291 3.78722 -6.12615
upperback 16.9676 0.923478 -3.14935
thorax -1.98447 -1.22398 -0.986147
lowerneck -3.53205 -1.9839 -2.44044
upperneck 29.376 -0.851566 -5.6528
head 9.86932 -0.514279 -1.5185
rclavicle 1.72943e-014 -2.74323e-014
rhumerus 56.3573 -11.7884 -79.7239
rradius 113.661
rwrist 24.3534
rhand -43.2189 -268.654
rfingers 7.12502
rthumb -16.0692 120.7
lclavicle 1.72943e-014 -2.74323e-014
lhumerus 61.5473 16.5724 72.2492
lradius 108.514
lwrist -16.0781
lhand -58.7673 -71.9855
lfingers 7.12502
lthumb -30.9776 -44.5798
rfemur -70.5956 7.33186 20.7364
rtibia 47.0699
rfoot -9.30922 -3.58464
rtoes -11.1575
lfemur -69.1919 2.84054 -18.9457
ltibia 49.2617
lfoot -11.4316 -5.28526
ltoes 30.2516
373
root 11.1412 10.7716 6.08273 -47.6719 -4.23481 -171.411
lowerback 57.0524 4.01242 -5.47833
upperback 16.8681 1.09186 -3.89798
thorax -2.19221 -1.19362 -2.18403
lowerneck -3.05447 -2.39172 -1.84108
upperneck 29.1799 -1.62031 -5.19799
head 9.67914 -0.740174 -1.5188
rclavicle -4.65156e-014 -4.92986e-014
rhumerus 55.7588 -12.8256 -80.209
rradius 113.731
rwrist 24.6586
rhand -42.8665 -268.041
rfingers 7.12502
rthumb -15.7298 121.339
lclavicle -4.65156e-014 -4.92986e-014
lhumerus 61.8961 15.4021 71.7845
lradius 108.553
lwrist -16.0125
lhand -58.9649 -74.5086
lfingers 7.12502
lthumb -31.1659 -47.1389
rfemur -69.6943 7.56212 20.8889
rtibia 48.1629
rfoot -9.32403 -3.08941
rtoes -11.5197
lfemur -68.2317 3.2479 -19.3294
ltibia 50.2619
lfoot -11.6691 -4.76409
ltoes 27.3548
374
root 11.1375 10.5693 5.73357 -46.7219 -4.7422 -170.895
lowerback 58.2946 4.45094 -4.87356
upperback 16.6999 1.507 -4.35625
thorax -2.43072 -1.07088 -3.13896
lowerneck -4.43459 -2.9363 -0.674083
upperneck 31.9515 -2.43818 -5.23797
head 10.9433 -0.874597 -1.87025
rclavicle 1.43125e-014 2.3059e-014
rhumerus 55.2954 -13.8412 -80.3951
rradius 113.575
rwrist 25.3347
rhand -42.5299 -267.733
rfingers 7.12502
rthumb -15.4056 121.673
lclavicle 1.43125e-014 2.3059e-014
lhumerus 62.144 14.059 71.578
lradius 108.589
lwrist -15.9421
lhand -59.1552 -77.5648
lfingers 7.12502
lthumb -31.3472 -50.2301
rfemur -69.2061 7.93683 21.2169
rtibia 49.3837
rfoot -9.1676 -2.75534
rtoes -12.4548
lfemur -67.7043 3.73772 -19.3962
ltibia 51.3011
lfoot -11.7157 -4.88332
ltoes 30.6778
375
root 11.1345 10.3769 5.40502 -44.8982 -5.52565 -170.587
lowerback 57.9276 5.09427 -6.07243
upperback 16.7827 1.50272 -3.8612
thorax -2.28645 -1.25372 -2.06862
lowerneck -5.42591 -2.75458 -2.0737
upperneck 32.3781 -1.78116 -5.47634
head 11.3623 -0.769099 -1.67291
rclavicle 4.33351e-014 3.49861e-014
rhumerus 56.1325 -11.9806 -80.1968
rradius 113.199
rwrist 25.8502
rhand -42.6676 -267.961
rfingers 7.12502
rthumb -15.5383 121.434
lclavicle 4.33351e-014 3.49861e-014
lhumerus 61.6809 15.6126 71.9044
lradius 108.528
lwrist -16.3033
lhand -59.3861 -80.747
lfingers 7.12502
lthumb -31.5673 -53.4552
rfemur -69.6767 8.38785 21.6904
rtibia 50.571
rfoot -8.88936 -2.46592
rtoes -12.2091
lfemur -68.3431 4.42027 -19.2074
ltibia 52.595
lfoot -12.0008 -5.27734
ltoes 32.6794
376
root 11.1285 10.1908 5.09807 -42.2508 -6.30114 -170.077
lowerback 56.0958 5.51866 -6.35251
upperback 17.2796 1.94955 -4.09765
thorax -1.62019 -1.13131 -2.33163
lowerneck -4.71903 -2.73755 -1.65347
upperneck 30.9248 -1.84168 -5.43973
head 10.6423 -0.784015 -1.70344
rclavicle 2.98177e-014 -7.95139e-016
rhumerus 56.4385 -12.1986 -80.4069
rradius 112.963
rwrist 26.2736
rhand -42.9642 -268.222
rfingers 7.12502
rthumb -15.8238 121.151
lclavicle 2.98177e-014 -7.95139e-016
lhumerus 62.0323 15.3185 72.0005
lradius 108.587
lwrist -16.553
lhand -59.4799 -83.3984
lfingers 7.12502
lthumb -31.6566 -56.1242
rfemur -71.2367 8.8707 21.7891
rtibia 51.9505
rfoot -8.52212 -2.14582
rtoes -11.238
lfemur -70.0686 5.20108 -19.3845
ltibia 54.1074
lfoot -12.3941 -5.44408
ltoes 32.5393
